# Blender v3.0.1 OBJ File: ''
# www.blender.org
mtllib bfly.mtl
o Default_18
v 3.333743 7.599628 10.728841
v 1.101923 6.684018 21.474962
v 2.157862 0.930871 28.269449
v 5.117811 5.975909 21.474962
v -6.664632 11.271894 35.955662
v 13.985132 7.630783 35.955662
v 0.969639 7.024280 5.349931
v -6.048040 11.912467 23.764832
v 13.624814 8.443612 23.764832
v 5.358493 6.250407 5.349931
v -20.693342 20.337561 38.850605
v 21.420473 7.173024 40.630051
v 30.268450 11.351622 38.850601
v -28.544611 29.916935 24.156036
v -18.056576 15.893400 6.165392
v -25.543455 25.937290 13.437183
v 36.741283 14.954811 13.437182
v 5.358493 6.250407 5.349931
v 40.922565 17.667995 24.156034
v -13.808129 13.384777 40.630054
v 26.270704 8.077304 6.165391
v -7.592739 17.284075 -9.173997
v 1.802763 4.967697 0.694471
v 16.913551 12.962954 -9.173998
v 3.872214 4.602766 0.694471
v -1.519488 8.943096 -6.924088
v -10.177659 12.267560 -24.754827
v -25.958145 23.214544 -40.137417
v 8.353770 7.202113 -6.924089
v -45.987747 40.816311 -44.299492
v -36.223698 34.175415 -29.430805
v 49.595036 19.043291 -29.430807
v 36.199726 12.254435 -40.137417
v 37.628647 19.380045 -13.015857
v -33.579041 28.501169 4.126355
v 45.169163 14.615735 4.126352
v -24.863787 30.399147 -13.015855
v -42.821976 32.959999 -17.581675
v -41.789303 34.196716 -21.253765
v 55.379692 15.644427 -17.581678
v 54.832268 17.159697 -21.253769
v -47.309757 38.026253 -30.674755
v -41.833363 36.172386 -46.636673
v 55.549393 19.001179 -46.636677
v 61.041553 21.944157 -44.299496
v 61.329590 18.870237 -30.674757
v 17.626831 7.364878 -24.754827
v 2.183531 4.027767 -1.433189
v 2.375147 3.554769 -2.503920
v 2.727264 4.160120 -0.196019
v 3.192939 3.849781 -1.433189
v 2.851104 3.470844 -2.503920
vt 0.500000 0.622062
vt 0.481876 0.717583
vt 0.500000 0.777977
vt 0.518124 0.717583
vt 0.406808 0.846299
vt 0.593192 0.846299
vt 0.480193 0.574250
vt 0.411217 0.737937
vt 0.588783 0.737937
vt 0.519807 0.574250
vt 0.270011 0.872031
vt 0.658985 0.887848
vt 0.729989 0.872031
vt 0.186497 0.741414
vt 0.299953 0.581499
vt 0.218911 0.646136
vt 0.781089 0.646136
vt 0.519807 0.574250
vt 0.813503 0.741414
vt 0.341015 0.887848
vt 0.700047 0.581499
vt 0.389404 0.445150
vt 0.490661 0.532869
vt 0.610596 0.445150
vt 0.509339 0.532869
vt 0.455442 0.465149
vt 0.374519 0.306655
vt 0.219484 0.169922
vt 0.544558 0.465149
vt 0.016981 0.132926
vt 0.112703 0.265091
vt 0.887297 0.265091
vt 0.780516 0.169922
vt 0.782026 0.411000
vt 0.144612 0.563374
vt 0.855388 0.563374
vt 0.217974 0.411000
vt 0.056819 0.370416
vt 0.063950 0.337775
vt 0.943181 0.370416
vt 0.936050 0.337775
vt 0.009714 0.254034
vt 0.060515 0.112152
vt 0.939485 0.112152
vt 0.983019 0.132926
vt 0.990286 0.254034
vt 0.625481 0.306655
vt 0.490097 0.535099
vt 0.495330 0.514408
vt 0.500000 0.559005
vt 0.509903 0.535099
vt 0.504670 0.514408
vn 0.8808 0.4200 0.2187
vn -0.6840 0.6959 0.2187
vn 0.7570 0.6188 0.2099
vn -0.4997 0.8404 0.2099
vn 0.1864 0.9649 -0.1851
vn 0.4959 0.8655 0.0706
vn -0.1700 0.9829 0.0706
vn 0.1549 0.9704 -0.1851
vn 0.5517 0.8309 0.0716
vn -0.2771 0.8081 0.5199
vn 0.6585 0.7411 0.1313
vn -0.1116 0.9914 -0.0680
vn 0.2959 0.6950 -0.6553
vn -0.2268 0.9615 -0.1549
vn 0.5367 0.6646 0.5199
vn -0.2343 0.9695 0.0716
vn 0.5420 0.8260 -0.1549
vn -0.0403 0.7543 -0.6553
vn 0.8271 0.5536 -0.0965
vn -0.5879 0.8031 -0.0965
vn 0.8082 0.5082 -0.2977
vn 0.7293 0.6067 -0.3163
vn -0.5671 0.8219 -0.0532
vn 0.6690 0.7350 -0.1110
vn -0.2881 0.9298 -0.2291
vn -0.3261 0.9184 -0.2241
vn 0.4075 0.8417 0.3543
vn 0.5343 0.7275 0.4304
vn -0.0951 0.9303 0.3543
vn -0.2533 0.8663 0.4304
vn 0.0995 0.9822 0.1594
vn 0.0501 0.9422 0.3314
vn -0.2176 0.9115 0.3491
vn 0.5162 0.7821 0.3491
vn 0.2424 0.9570 0.1594
vn 0.2752 0.9025 0.3314
vn 0.3010 0.9319 0.2024
vn 0.2981 0.9290 0.2192
vn 0.1791 0.9776 0.1105
vn 0.6693 0.7096 -0.2202
vn -0.3863 0.8957 -0.2202
vn 0.1661 0.9799 0.1105
vn 0.5887 0.7752 -0.2291
vn 0.6205 0.7515 -0.2241
vn 0.0359 0.9786 0.2024
vn 0.0376 0.9750 0.2192
vn -0.3772 0.9194 -0.1110
vn 0.4440 0.8935 -0.0680
vn 0.3400 0.9404 -0.0077
vn -0.3074 0.9363 0.1698
vn 0.1666 0.9495 0.2660
vn -0.3653 0.9216 0.1313
vn 0.8140 0.5784 -0.0532
vn -0.5856 0.7539 -0.2977
vn -0.4778 0.8196 -0.3163
vn 0.5201 0.8447 -0.1265
vn 0.3836 0.8768 -0.2898
vn 0.1660 0.9417 -0.2928
vn 0.9497 -0.1736 0.2605
vn 0.4556 0.8416 -0.2902
vn 0.1654 0.9381 -0.3043
vn -0.1403 0.9466 -0.2902
vn -0.0436 0.9515 -0.3046
vn 0.9515 -0.2341 -0.1997
usemtl default
s 1
f 1/1/1 2/2/1 3/3/1
f 1/1/2 3/3/2 4/4/2
f 1/1/3 5/5/3 2/2/3
f 6/6/4 1/1/4 4/4/4
f 7/7/5 8/8/5 1/1/5
f 1/1/6 8/8/6 5/5/6
f 6/6/7 9/9/7 1/1/7
f 1/1/8 9/9/8 10/10/8
f 11/11/9 5/5/9 8/8/9
f 6/6/10 12/12/10 13/13/10
f 7/7/11 14/14/11 11/11/11
f 13/13/12 10/10/12 9/9/12
f 15/15/13 16/16/13 7/7/13
f 17/17/14 18/18/14 19/19/14
f 20/20/15 5/5/15 11/11/15
f 6/6/16 13/13/16 9/9/16
f 7/7/17 16/16/17 14/14/17
f 17/17/18 21/21/18 18/18/18
f 22/22/19 7/7/19 23/23/19
f 18/18/20 24/24/20 25/25/20
f 26/26/21 27/27/21 22/22/21
f 22/22/22 27/27/22 28/28/22
f 25/25/23 24/24/23 29/29/23
f 30/30/24 31/31/24 28/28/24
f 32/32/25 33/33/25 34/34/25
f 34/34/26 33/33/26 24/24/26
f 7/7/27 22/22/27 15/15/27
f 15/15/28 22/22/28 35/35/28
f 18/18/29 21/21/29 24/24/29
f 24/24/30 21/21/30 36/36/30
f 35/35/31 37/37/31 38/38/31
f 38/38/32 37/37/32 39/39/32
f 34/34/33 24/24/33 36/36/33
f 22/22/34 37/37/34 35/35/34
f 36/36/35 40/40/35 34/34/35
f 34/34/36 40/40/36 41/41/36
f 39/39/37 31/31/37 42/42/37
f 42/42/38 31/31/38 30/30/38
f 41/41/39 32/32/39 34/34/39
f 28/28/40 43/43/40 30/30/40
f 44/44/41 33/33/41 45/45/41
f 31/31/42 39/39/42 37/37/42
f 31/31/43 37/37/43 28/28/43
f 28/28/44 37/37/44 22/22/44
f 41/41/45 46/46/45 32/32/45
f 32/32/46 46/46/46 45/45/46
f 33/33/47 32/32/47 45/45/47
f 7/7/48 11/11/48 8/8/48
f 10/10/49 13/13/50 18/18/51
f 19/19/52 18/18/52 13/13/52
f 22/22/53 23/23/53 26/26/53
f 29/29/54 24/24/54 47/47/54
f 47/47/55 24/24/55 33/33/55
f 7/7/56 48/48/57 49/49/58 23/23/59
f 7/7/60 1/1/60 50/50/61 48/48/57
f 1/1/62 10/10/62 51/51/63 50/50/61
f 52/52/58 49/49/58 48/48/57 50/50/61 51/51/63
f 25/25/64 52/52/58 51/51/63 10/10/49 18/18/51
