<svg width="146" height="146" fill="none" xmlns="http://www.w3.org/2000/svg"><g opacity=".6" filter="url(#filter0_bddi_1188_1740)"><path d="M73 13c33.138 0 60 26.862 60 60 0 33.138-26.862 60-60 60a59.76 59.76 0 01-38.298-13.812l-1.464-1.254 5.412-11.412a47.996 47.996 0 0060.34 6.839 47.997 47.997 0 0018.753-57.757 48.003 48.003 0 00-52.848-29.912A48 48 0 0025.03 71.5L25 73h15l-16.236 34.296A59.723 59.723 0 0113 73c0-33.138 26.862-60 60-60zm6 24v12h15v12H61a3 3 0 00-.54 5.952L61 67h24a15 15 0 110 30h-6v12H67V97H52V85h33a3 3 0 00.54-5.952L85 79H61a15 15 0 010-30h6V37h12z" fill="#FBFBFB"/></g><path d="M73 13c33.138 0 60 26.862 60 60 0 33.138-26.862 60-60 60a59.76 59.76 0 01-38.298-13.812l-1.464-1.254 5.412-11.412a47.996 47.996 0 0060.34 6.839 47.997 47.997 0 0018.753-57.757 48.003 48.003 0 00-52.848-29.912A48 48 0 0025.03 71.5L25 73h15l-16.236 34.296A59.723 59.723 0 0113 73c0-33.138 26.862-60 60-60zm6 24v12h15v12H61a3 3 0 00-.54 5.952L61 67h24a15 15 0 110 30h-6v12H67V97H52V85h33a3 3 0 00.54-5.952L85 79H61a15 15 0 010-30h6V37h12z" fill="#FBFBFB"/><defs><filter id="filter0_bddi_1188_1740" x="0" y="0" width="146" height="146" filterUnits="userSpaceOnUse" color-interpolation-filters="sRGB"><feFlood flood-opacity="0" result="BackgroundImageFix"/><feGaussianBlur in="BackgroundImage" stdDeviation="5"/><feComposite in2="SourceAlpha" operator="in" result="effect1_backgroundBlur_1188_1740"/><feColorMatrix in="SourceAlpha" values="0 0 0 0 0 0 0 0 0 0 0 0 0 0 0 0 0 0 127 0" result="hardAlpha"/><feOffset dx="3" dy="3"/><feGaussianBlur stdDeviation="5"/><feComposite in2="hardAlpha" operator="out"/><feColorMatrix values="0 0 0 0 0.611765 0 0 0 0 0.819608 0 0 0 0 0.713726 0 0 0 0.9 0"/><feBlend in2="effect1_backgroundBlur_1188_1740" result="effect2_dropShadow_1188_1740"/><feColorMatrix in="SourceAlpha" values="0 0 0 0 0 0 0 0 0 0 0 0 0 0 0 0 0 0 127 0" result="hardAlpha"/><feOffset dx="-3" dy="-3"/><feGaussianBlur stdDeviation="5"/><feComposite in2="hardAlpha" operator="out"/><feColorMatrix values="0 0 0 0 1 0 0 0 0 1 0 0 0 0 1 0 0 0 1 0"/><feBlend in2="effect2_dropShadow_1188_1740" result="effect3_dropShadow_1188_1740"/><feBlend in="SourceGraphic" in2="effect3_dropShadow_1188_1740" result="shape"/><feColorMatrix in="SourceAlpha" values="0 0 0 0 0 0 0 0 0 0 0 0 0 0 0 0 0 0 127 0" result="hardAlpha"/><feOffset dx="-3" dy="-3"/><feGaussianBlur stdDeviation="5"/><feComposite in2="hardAlpha" operator="arithmetic" k2="-1" k3="1"/><feColorMatrix values="0 0 0 0 0.611765 0 0 0 0 0.819608 0 0 0 0 0.713726 0 0 0 0.4 0"/><feBlend in2="shape" result="effect4_innerShadow_1188_1740"/></filter></defs></svg>